<svg width="69" height="12" viewBox="0 0 69 12" fill="none" xmlns="http://www.w3.org/2000/svg">
<path fill-rule="evenodd" clip-rule="evenodd" d="M59.8568 3.3484C59.914 6.2084 61.4188 7.9288 63.9004 7.9288H64.05V6.292C64.952 6.3844 65.6296 7.0576 65.9024 7.9288H67.2048C66.8528 6.6264 65.9332 5.9048 65.3656 5.632C65.9332 5.2932 66.7384 4.466 66.9276 3.3484H65.744C65.4976 4.2592 64.7584 5.082 64.05 5.1612V3.3484H62.8444V6.5208C62.1096 6.3404 61.1548 5.4472 61.1152 3.3484H59.8568ZM63.7332 11H63.2756H63.2337C60.7755 11 59.5357 11 58.77 10.23C58 9.4556 58 8.2148 58 5.7332V5.2668V5.22506C58 2.77554 58 1.53566 58.77 0.77C59.5444 0 60.7896 0 63.2756 0H63.7332C66.2192 0 67.4644 0 68.2344 0.77C69 1.5444 69 2.7852 69 5.2668V5.7332C69 8.2104 69 9.4556 68.2344 10.23C67.4644 11 66.2192 11 63.7332 11ZM18.4961 2.15879V11.4387H19.9624V7.80352C20.2259 8.12778 20.566 8.40085 20.9825 8.62271C21.399 8.83604 21.875 8.94271 22.4106 8.94271C23.0311 8.94271 23.5879 8.79764 24.0809 8.50751C24.574 8.20885 24.9565 7.79925 25.2285 7.27873C25.509 6.74967 25.6493 6.15234 25.6493 5.48675C25.6493 4.82116 25.509 4.2281 25.2285 3.70757C24.9565 3.17851 24.574 2.76891 24.0809 2.47878C23.5879 2.18012 23.0311 2.03079 22.4106 2.03079C21.858 2.03079 21.3693 2.15025 20.9442 2.38918C20.5192 2.61958 20.1707 2.90118 19.8987 3.23398L19.5927 2.15879H18.4961ZM23.5454 7.03553C23.1629 7.42806 22.6656 7.62432 22.0536 7.62432C21.433 7.62432 20.9272 7.42806 20.5362 7.03553C20.1537 6.63447 19.9624 6.11821 19.9624 5.48675C19.9624 4.85529 20.1537 4.3433 20.5362 3.95077C20.9272 3.5497 21.433 3.34917 22.0536 3.34917C22.6656 3.34917 23.1629 3.5497 23.5454 3.95077C23.9279 4.3433 24.1192 4.85529 24.1192 5.48675C24.1192 6.11821 23.9279 6.63447 23.5454 7.03553ZM11 8.81471H12.4663V3.50277H15.3735V8.81471H16.8399V2.15879H11V8.81471ZM30.0883 8.94271C29.4082 8.94271 28.7962 8.79764 28.2521 8.50751C27.7166 8.20885 27.2958 7.79925 26.9898 7.27873C26.6923 6.74967 26.5435 6.15234 26.5435 5.48675C26.5435 4.82116 26.6923 4.2281 26.9898 3.70757C27.2958 3.17851 27.7166 2.76891 28.2521 2.47878C28.7962 2.18012 29.4082 2.03079 30.0883 2.03079C30.7683 2.03079 31.3761 2.18012 31.9116 2.47878C32.4557 2.76891 32.8764 3.17851 33.174 3.70757C33.48 4.2281 33.633 4.82116 33.633 5.48675C33.633 6.15234 33.48 6.74967 33.174 7.27873C32.8764 7.79925 32.4557 8.20885 31.9116 8.50751C31.3761 8.79764 30.7683 8.94271 30.0883 8.94271ZM30.0883 7.59872C30.6833 7.59872 31.1678 7.40673 31.5419 7.02273C31.9159 6.6302 32.1029 6.11821 32.1029 5.48675C32.1029 4.85529 31.9159 4.34756 31.5419 3.96357C31.1678 3.57104 30.6833 3.37477 30.0883 3.37477C29.4932 3.37477 29.0087 3.57104 28.6347 3.96357C28.2606 4.34756 28.0736 4.85529 28.0736 5.48675C28.0736 6.11821 28.2606 6.6302 28.6347 7.02273C29.0087 7.40673 29.4932 7.59872 30.0883 7.59872ZM41.3852 5.88354C41.4022 5.69581 41.4107 5.53795 41.4107 5.40995C41.4107 4.77849 41.2619 4.20676 40.9644 3.69477C40.6754 3.17424 40.2674 2.76891 39.7403 2.47878C39.2218 2.18012 38.631 2.03079 37.968 2.03079C37.3049 2.03079 36.7099 2.18012 36.1828 2.47878C35.6643 2.76891 35.2563 3.17851 34.9588 3.70757C34.6698 4.2281 34.5252 4.82116 34.5252 5.48675C34.5252 6.15234 34.6698 6.74967 34.9588 7.27873C35.2563 7.79925 35.6643 8.20885 36.1828 8.50751C36.7099 8.79764 37.3049 8.94271 37.968 8.94271C38.682 8.94271 39.3281 8.77631 39.9061 8.44351C40.4926 8.11072 40.9049 7.63712 41.1429 7.02273L39.7658 6.79233C39.6043 7.0398 39.3706 7.23606 39.0645 7.38113C38.767 7.52619 38.4312 7.59872 38.0572 7.59872C37.5047 7.59872 37.0499 7.44513 36.6929 7.13793C36.3359 6.8222 36.1233 6.40407 36.0553 5.88354H41.3852ZM36.8076 3.69477C37.1392 3.43877 37.5259 3.31077 37.968 3.31077C38.4185 3.31077 38.8053 3.44304 39.1283 3.70757C39.4598 3.96357 39.6893 4.3049 39.8168 4.73156H36.1446C36.2636 4.29636 36.4846 3.95077 36.8076 3.69477ZM48.5972 8.81471H46.6718L44.3766 6.16514H44.0196V8.81471H42.5533V2.15879H44.0196V4.74436H44.3766L46.5953 2.15879H48.3421L45.5497 5.35875L48.5972 8.81471ZM51.0844 8.81471H52.5507V3.50277H54.8459V2.15879H48.7892V3.50277H51.0844V8.81471Z" fill="white" fill-opacity="0.48"/>
<path fill-rule="evenodd" clip-rule="evenodd" d="M6.11959e-07 11L0 3.43447e-08L0.999999 0L1 11H6.11959e-07Z" fill="white" fill-opacity="0.48"/>
</svg>
